PathFileType	4	(X/Y/Z)	..\data\2014007\dynamic\2014007_C4_04.trc
DataRate	CameraRate	NumFrames	NumMarkers	Units	OrigDataRate	OrigDataStartFrame	OrigNumFrames
100.000000	100.000000	4	52	mm	100.000000	94	188
Frame#	Time	L_IAS			L_IPS			R_IPS			R_IAS			L_FTC			L_FLE			L_FME			L_FAX			L_TTC			L_FAL			L_TAM			L_FCC			L_FM1			L_FM2			L_FM5			R_FTC			R_FLE			R_FME			R_FAX			R_TTC			R_FAL			R_TAM			R_FCC			R_FM1			R_FM2			R_FM5			CV7			TV10			SXS			SJN			L_SIA			L_SRS			L_SAA			L_SAE			L_HLE			L_HME			L_UOA			L_RSP			L_UHE			L_HM2			L_HM5			R_SIA			R_SRS			R_SAA			R_SAE			R_HLE			R_HME			R_UOA			R_RSP			R_UHE			R_HM2			R_HM5			
		X1	Y1	Z1	X2	Y2	Z2	X3	Y3	Z3	X4	Y4	Z4	X5	Y5	Z5	X6	Y6	Z6	X7	Y7	Z7	X8	Y8	Z8	X9	Y9	Z9	X10	Y10	Z10	X11	Y11	Z11	X12	Y12	Z12	X13	Y13	Z13	X14	Y14	Z14	X15	Y15	Z15	X16	Y16	Z16	X17	Y17	Z17	X18	Y18	Z18	X19	Y19	Z19	X20	Y20	Z20	X21	Y21	Z21	X22	Y22	Z22	X23	Y23	Z23	X24	Y24	Z24	X25	Y25	Z25	X26	Y26	Z26	X27	Y27	Z27	X28	Y28	Z28	X29	Y29	Z29	X30	Y30	Z30	X31	Y31	Z31	X32	Y32	Z32	X33	Y33	Z33	X34	Y34	Z34	X35	Y35	Z35	X36	Y36	Z36	X37	Y37	Z37	X38	Y38	Z38	X39	Y39	Z39	X40	Y40	Z40	X41	Y41	Z41	X42	Y42	Z42	X43	Y43	Z43	X44	Y44	Z44	X45	Y45	Z45	X46	Y46	Z46	X47	Y47	Z47	X48	Y48	Z48	X49	Y49	Z49	X50	Y50	Z50	X51	Y51	Z51	X52	Y52	Z52	

95	0.9400000000000001	-113.484489440918	925.241882324219	156.3973083496094	-320.7416076660157	993.4208984375002	223.6005554199219	-321.9865112304689	997.9644165039065	305.0558471679688	-140.9055328369141	935.8341064453127	412.2344055175782	-169.0350952148438	897.116638183594	88.10753631591797	-151.2976837158204	466.4073791503907	157.2640838623047	-168.4190979003907	456.4057922363282	279.9566040039063	-172.8041076660157	401.3660278320314	156.3064727783203	-127.4728240966797	393.5447998046876	219.9235992431641	-214.9490661621095	63.01992416381837	203.407455444336	-196.197982788086	82.97109222412111	283.2767333984376	-266.023651123047	26.69792938232423	252.3089447021485	-77.48342895507817	25.44893646240235	278.2738037109376	-72.09608459472661	41.16276931762696	225.0227508544922	-110.4222488403321	24.95831298828126	176.990219116211	-209.2142028808595	879.6602783203127	465.134246826172	-111.1373291015626	478.4247436523439	442.8423461914064	-88.97621154785162	468.6033630371095	308.6450500488282	-155.6638183593751	428.5850219726564	439.2005920410157	-102.4982986450196	394.6372375488282	392.7078552246095	-398.5438842773439	184.4132690429688	378.43701171875	-359.3488769531251	187.5930328369141	298.7138671875	-451.4527282714845	187.6717529296875	314.7563171386719	-306.8218994140626	69.39358520507814	318.3319702148438	-305.160614013672	77.40068817138673	367.7562255859375	-347.4666748046876	89.50148010253908	403.2642822265626	-275.7846069335939	1441.014282226563	250.807357788086	-326.8259582519532	1203.185546875	263.0987243652344	-150.8010864257813	1357.985717773438	255.4532318115235	-80.03585052490239	1186.629516601563	268.2549743652344	-332.8334960937501	1217.975341796875	161.7157440185547	-312.7106933593751	1359.176635742188	164.8825836181641	-277.3803710937501	1360.397094726563	95.51757812499999	-223.4886779785157	1363.244018554688	70.09686279296874	-223.5981445312501	1037.608764648438	13.85950946807859	-247.3608856201172	1022.588256835938	91.92870330810545	-255.1221618652344	1016.298645019531	42.25740051269529	-92.49853515625001	815.9113769531252	43.38711547851562	-138.9528503417969	809.1093750000002	-18.36858940124514	-46.95276260375978	736.7485351562501	30.97386932373047	-133.9707794189453	725.0811767578126	-19.03466224670412	-348.0961303710939	1230.734008789063	355.5320739746094	-320.6106262207032	1360.763549804688	351.2261657714844	-275.927947998047	1383.09619140625	419.1863708496094	-232.926727294922	1386.973510742188	441.4504699707032	-257.6273498535157	1073.568115234375	536.6730346679689	-297.8623046875001	1062.154541015625	461.3907470703126	-299.6239318847657	1046.968994140625	513.6710815429689	-148.612274169922	834.601501464844	503.542205810547	-189.5437927246095	837.1785888671877	570.3872070312501	-120.3674240112306	755.2561645507814	505.911834716797	-187.3441009521485	760.9619750976564	579.3533935546876	
96	0.9500000000000001	-105.6162719726563	925.5693969726565	155.8182678222657	-312.9504394531251	993.896423339844	223.3930358886719	-314.2691345214845	998.643981933594	304.7987976074219	-132.9857788085938	937.110534667969	411.428680419922	-161.6842651367188	896.9987792968752	87.82746887207031	-149.6643218994141	466.2041015625001	157.1759338378906	-166.4781646728516	456.3580322265626	279.8761291503907	-171.6075286865235	401.4207458496095	156.2919006347656	-126.2070465087891	393.230682373047	219.7746734619141	-214.9094390869141	63.09226608276369	203.4412536621094	-196.1270446777345	83.04742431640626	283.2250976562501	-265.9907531738282	26.88093757629395	252.3259887695313	-77.54280853271489	25.39443397521973	278.2282409667969	-72.04685974121098	41.15730667114259	224.9888458251954	-110.4322738647462	24.9537467956543	176.8987884521485	-200.6594390869142	881.323913574219	465.1727905273439	-94.13873291015632	481.460418701172	442.3486938476564	-72.68908691406256	472.2435607910157	308.1434936523438	-137.509506225586	430.5594177246095	438.5965576171876	-83.70579528808599	398.1921691894532	392.0260314941407	-372.586395263672	178.4153594970703	378.1732788085938	-334.1585693359376	183.3691558837891	298.252197265625	-426.3891601562502	179.4818420410157	314.56787109375	-276.5634155273439	67.70485687255861	317.5813903808594	-274.6487731933595	76.25084686279298	366.9595642089844	-317.1749572753907	86.51439666748048	402.7394104003907	-267.4790954589845	1441.655639648438	250.3565368652344	-318.789276123047	1203.778442382813	262.3020324707031	-142.6312255859376	1358.38916015625	255.3553314208985	-72.12517547607426	1187.004028320313	268.1885375976563	-324.4856567382813	1218.763305664063	160.7849426269531	-304.3025817871094	1359.885864257813	164.2339324951172	-268.7138366699219	1361.13330078125	94.99174499511717	-214.6524047851563	1364.044067382813	69.81564331054686	-209.6566619873047	1038.477416992188	12.32806491851805	-234.4909210205079	1022.877075195313	89.92894744873045	-241.4453277587891	1016.524719238281	40.28464889526365	-75.20435333251955	819.1175537109377	43.36654663085938	-120.7345581054688	811.602233886719	-19.06028556823732	-27.98155021667482	740.9282836914064	31.38406944274903	-114.1033935546875	727.7693481445314	-20.12338447570803	-340.3937377929689	1231.194702148438	354.5206604003906	-312.7777404785157	1361.186279296875	350.4692687988281	-268.4068603515626	1383.4580078125	418.6157531738282	-225.5328674316407	1387.328125	441.071990966797	-251.0739593505861	1073.969604492188	536.1812133789064	-290.7961425781251	1062.525512695313	460.5823974609376	-293.0635375976564	1047.481323242188	512.7160644531251	-141.4178009033204	835.2008056640627	504.4419555664064	-183.4267578125001	837.6124267578127	570.6128540039064	-112.5525054931641	756.1049804687501	507.5111389160157	-180.881561279297	761.4727783203126	579.7734375000001	
97	0.96	-97.79705810546879	925.7574462890627	155.285888671875	-305.1569824218751	994.2852783203127	223.2503204345703	-306.5528564453126	999.2135009765627	304.6215515136719	-124.9987182617188	938.3793945312502	410.6248168945314	-154.2910766601563	896.8323974609377	87.5887451171875	-148.0380249023438	465.9803161621095	157.1013946533203	-164.5188446044922	456.2994079589845	279.8215942382813	-170.3926086425782	401.4729003906251	156.2943267822266	-124.9235763549805	392.9167480468751	219.6461944580078	-214.8753051757813	63.168270111084	203.4862060546875	-196.0551300048829	83.13293457031251	283.1845703125001	-265.9607849121095	27.03428840637208	252.3633422851563	-77.60343933105473	25.34236145019532	278.1740722656251	-71.99937438964848	41.15781021118165	224.9565734863282	-110.4442977905274	24.95304870605469	176.8158569335938	-192.0833435058595	882.8681640625002	465.2637023925782	-77.56274414062507	484.4080810546876	441.7389221191407	-57.05507278442388	475.7579040527345	307.5554809570313	-119.6270675659181	432.237518310547	437.9275207519532	-65.24632263183599	401.6723632812501	391.174530029297	-345.8765258789064	171.4666595458985	377.8924560546875	-308.4805297851564	178.4590606689453	297.7459106445312	-400.5545043945314	170.382064819336	314.4973754882812	-245.6099853515626	65.69992065429689	316.3880615234375	-243.4031372070314	74.63277435302736	365.7228698730469	-286.0327148437501	82.83362579345705	401.8581237792969	-259.1988525390626	1442.187377929688	249.946533203125	-310.7491760253907	1204.262329101563	261.5692443847656	-134.477035522461	1358.704711914063	255.2544860839844	-64.19646453857426	1187.300537109375	268.0543518066407	-316.1480712890626	1219.428100585938	159.9402770996094	-295.9307556152344	1360.467407226563	163.6578674316406	-260.1250610351563	1361.753784179688	94.52037048339842	-205.9298400878907	1364.748779296875	69.56075286865233	-195.9283294677735	1039.34716796875	10.91325473785398	-221.6770477294922	1023.156127929688	88.07415771484374	-227.8767395019532	1016.734191894531	38.45127487182615	-58.09873962402346	822.380310058594	43.43283081054688	-102.7267074584961	814.1538085937502	-19.61443328857424	-9.238697052001958	745.1749877929689	31.87709045410157	-94.46070861816408	730.5476684570314	-21.03578567504884	-332.6687927246095	1231.546020507813	353.5796508789062	-304.9361572265626	1361.503173828125	349.7661437988281	-260.8566894531251	1383.719116210938	418.0834655761719	-218.1039428710939	1387.584228515625	440.7176208496095	-244.4914550781251	1074.28369140625	535.7239990234376	-283.6874084472657	1062.80126953125	459.8140563964844	-286.4505004882814	1047.885375976563	511.8084411621094	-134.1459960937501	835.7332763671877	505.3502197265626	-177.2462768554688	837.9453735351565	570.8238525390626	-104.6653213500977	756.9008178710939	509.088348388672	-174.3486785888673	761.8751220703126	580.1484375000001	
98	0.97	-90.03476715087893	925.7774658203127	154.8091278076172	-297.3630981445313	994.5847167968752	223.1766052246094	-298.8313903808595	999.665466308594	304.528076171875	-116.964324951172	939.5782470703127	409.8635864257814	-146.865219116211	896.6084594726565	87.39796447753906	-146.3763122558594	465.7333374023439	157.0466918945312	-162.5299072265626	456.2253417968751	279.7974548339844	-169.1222534179688	401.5179138183595	156.3187103271484	-123.6002655029297	392.5956420898439	219.5473785400391	-214.8441162109376	63.24877548217775	203.5422821044922	-195.9780883789063	83.22542572021486	283.1601867675782	-265.9353332519532	27.15687370300294	252.4224853515625	-77.65806579589848	25.29525184631348	278.1119384765626	-71.95245361328129	41.16021728515626	224.9254608154297	-110.458106994629	24.95298576354981	176.7425079345703	-183.5160064697266	884.2486572265627	465.4047851562501	-61.44567108154304	487.214813232422	441.0164489746095	-42.12592315673832	479.0800170898439	306.8840942382813	-102.0540847778321	433.5865783691407	437.200408935547	-47.16789245605474	405.027069091797	390.1653747558595	-318.4149475097657	163.7127380371094	377.5875854492188	-282.3121337890626	172.9339904785157	297.1951293945312	-373.9115295410157	160.504623413086	314.5342102050781	-214.0133361816407	63.48019790649415	314.8426208496094	-211.5010375976564	72.66146087646486	364.1401062011719	-254.1080932617189	78.61281585693361	400.6869812011719	-250.9357299804688	1442.601440429688	249.5777435302735	-302.7027587890626	1204.6328125	260.9037475585938	-126.3278884887696	1358.92333984375	255.1507873535157	-56.24575424194341	1187.501342773438	267.8632202148438	-307.8098754882813	1219.963256835938	159.1742095947266	-287.5834045410157	1360.918090820313	163.1469268798828	-251.5940399169922	1362.251953125	94.0985870361328	-197.2957916259766	1365.345703125	69.33011627197264	-182.4439849853516	1040.200561523438	9.612065315246561	-208.9374389648438	1023.41357421875	86.37107849121092	-214.4397125244141	1016.912170410156	36.76282119750974	-41.19777297973634	825.6812133789065	43.58149337768555	-84.95333862304689	816.738464355469	-20.02853012084962	9.260975837707518	749.4726562500001	32.4504623413086	-75.06015777587892	733.3845214843751	-21.7524871826172	-324.9104614257814	1231.783935546875	352.7158508300781	-297.0742187500001	1361.711303710938	349.1227111816406	-253.2610778808595	1383.875	417.5940246582032	-210.6212005615236	1387.736206054688	440.3903808593751	-237.8578186035157	1074.504760742188	535.3041381835939	-276.5222473144532	1062.977294921875	459.0958557128907	-279.7558593750001	1048.168701171875	510.9684143066407	-126.8065185546876	836.1787109375002	506.2532348632814	-170.9923706054688	838.1680908203127	571.0205688476564	-96.73973846435555	757.6161499023439	510.6159973144532	-167.7500915527345	762.1586303710939	580.4766845703126	
